<?xml version="1.0" encoding="UTF-8" standalone="no"?>
<!-- Created with Inkscape (http://www.inkscape.org/) -->

<svg
   xmlns:dc="http://purl.org/dc/elements/1.1/"
   xmlns:cc="http://creativecommons.org/ns#"
   xmlns:rdf="http://www.w3.org/1999/02/22-rdf-syntax-ns#"
   xmlns:svg="http://www.w3.org/2000/svg"
   xmlns="http://www.w3.org/2000/svg"
   xmlns:xlink="http://www.w3.org/1999/xlink"
   xmlns:sodipodi="http://sodipodi.sourceforge.net/DTD/sodipodi-0.dtd"
   xmlns:inkscape="http://www.inkscape.org/namespaces/inkscape"
   width="40"
   height="40"
   id="svg2"
   version="1.1"
   inkscape:version="0.47 r22583"
   sodipodi:docname="me.svg"
   inkscape:export-filename="/Users/mikaelroos/Desktop/me.png"
   inkscape:export-xdpi="90"
   inkscape:export-ydpi="90">
  <defs
     id="defs4">
    <inkscape:perspective
       sodipodi:type="inkscape:persp3d"
       inkscape:vp_x="0 : 526.18109 : 1"
       inkscape:vp_y="0 : 1000 : 0"
       inkscape:vp_z="744.09448 : 526.18109 : 1"
       inkscape:persp3d-origin="372.04724 : 350.78739 : 1"
       id="perspective10" />
    <inkscape:perspective
       id="perspective2849"
       inkscape:persp3d-origin="0.5 : 0.33333333 : 1"
       inkscape:vp_z="1 : 0.5 : 1"
       inkscape:vp_y="0 : 1000 : 0"
       inkscape:vp_x="0 : 0.5 : 1"
       sodipodi:type="inkscape:persp3d" />
    <inkscape:perspective
       id="perspective2876"
       inkscape:persp3d-origin="0.5 : 0.33333333 : 1"
       inkscape:vp_z="1 : 0.5 : 1"
       inkscape:vp_y="0 : 1000 : 0"
       inkscape:vp_x="0 : 0.5 : 1"
       sodipodi:type="inkscape:persp3d" />
    <inkscape:perspective
       id="perspective2911"
       inkscape:persp3d-origin="0.5 : 0.33333333 : 1"
       inkscape:vp_z="1 : 0.5 : 1"
       inkscape:vp_y="0 : 1000 : 0"
       inkscape:vp_x="0 : 0.5 : 1"
       sodipodi:type="inkscape:persp3d" />
    <inkscape:perspective
       id="perspective2938"
       inkscape:persp3d-origin="0.5 : 0.33333333 : 1"
       inkscape:vp_z="1 : 0.5 : 1"
       inkscape:vp_y="0 : 1000 : 0"
       inkscape:vp_x="0 : 0.5 : 1"
       sodipodi:type="inkscape:persp3d" />
    <filter
       inkscape:collect="always"
       id="filter3756"
       x="-0.12613019"
       width="1.2522604"
       y="-0.11421496"
       height="1.2284299"
       color-interpolation-filters="sRGB">
      <feGaussianBlur
         inkscape:collect="always"
         stdDeviation="0.65683711"
         id="feGaussianBlur3758" />
    </filter>
    <inkscape:perspective
       id="perspective3789"
       inkscape:persp3d-origin="0.5 : 0.33333333 : 1"
       inkscape:vp_z="1 : 0.5 : 1"
       inkscape:vp_y="0 : 1000 : 0"
       inkscape:vp_x="0 : 0.5 : 1"
       sodipodi:type="inkscape:persp3d" />
    <inkscape:perspective
       id="perspective3885"
       inkscape:persp3d-origin="0.5 : 0.33333333 : 1"
       inkscape:vp_z="1 : 0.5 : 1"
       inkscape:vp_y="0 : 1000 : 0"
       inkscape:vp_x="0 : 0.5 : 1"
       sodipodi:type="inkscape:persp3d" />
    <inkscape:perspective
       id="perspective3912"
       inkscape:persp3d-origin="0.5 : 0.33333333 : 1"
       inkscape:vp_z="1 : 0.5 : 1"
       inkscape:vp_y="0 : 1000 : 0"
       inkscape:vp_x="0 : 0.5 : 1"
       sodipodi:type="inkscape:persp3d" />
  </defs>
  <sodipodi:namedview
     id="base"
     pagecolor="#ffffff"
     bordercolor="#666666"
     borderopacity="1.0"
     inkscape:pageopacity="0.0"
     inkscape:pageshadow="2"
     inkscape:zoom="4.995"
     inkscape:cx="54.994676"
     inkscape:cy="35.832944"
     inkscape:document-units="px"
     inkscape:current-layer="layer1"
     showgrid="false"
     inkscape:window-width="1278"
     inkscape:window-height="971"
     inkscape:window-x="475"
     inkscape:window-y="12"
     inkscape:window-maximized="0" />
  <metadata
     id="metadata7">
    <rdf:RDF>
      <cc:Work
         rdf:about="">
        <dc:format>image/svg+xml</dc:format>
        <dc:type
           rdf:resource="http://purl.org/dc/dcmitype/StillImage" />
        <dc:title></dc:title>
      </cc:Work>
    </rdf:RDF>
  </metadata>
  <g
     inkscape:label="Layer 1"
     inkscape:groupmode="layer"
     id="layer1"
     transform="translate(0,-1012.3622)">
    <path
       sodipodi:type="arc"
       style="fill:#ececec;fill-rule:evenodd;stroke:#000000;stroke-width:1px;stroke-linecap:butt;stroke-linejoin:miter;stroke-opacity:1"
       id="path2818"
       sodipodi:cx="27.552275"
       sodipodi:cy="52.029522"
       sodipodi:rx="28.782288"
       sodipodi:ry="23.124231"
       d="m 56.334562,52.029522 a 28.782288,23.124231 0 1 1 -57.5645749,0 28.782288,23.124231 0 1 1 57.5645749,0 z"
       transform="matrix(0.64530634,0,0,0.55896957,2.2745604,997.86997)" />
    <path
       style="fill:none;stroke:#000000;stroke-width:0.52598691px;stroke-linecap:butt;stroke-linejoin:miter;stroke-opacity:1"
       d="m 20.190194,1040.681 2.07479,10.2887 0.854324,0.1373 c 1.057736,0 2.115472,0 3.173207,0 0.203411,0 0.406821,0 0.610232,0 0.04068,0 0.122047,-0.046 0.122047,0 0,0.046 -0.08136,0 -0.122047,0 -0.162729,0 -0.325457,0 -0.488185,0"
       id="path2826" />
    <path
       style="fill:none;stroke:#000000;stroke-width:0.48746696px;stroke-linecap:butt;stroke-linejoin:miter;stroke-opacity:1"
       d="m 18.222088,1040.6617 -1.890744,10.2144 -5.227354,0.1293"
       id="path2884" />
    <path
       sodipodi:type="arc"
       style="fill:#cccccc"
       id="path2886"
       sodipodi:cx="35.424355"
       sodipodi:cy="27.798279"
       sodipodi:rx="6.1500616"
       sodipodi:ry="2.3370233"
       d="m 41.574416,27.798279 a 6.1500616,2.3370233 0 1 1 -12.300123,0 6.1500616,2.3370233 0 1 1 12.300123,0 z"
       transform="matrix(0.49807136,0,0,0.49999953,-2.0006033,1009.9788)" />
    <path
       sodipodi:type="arc"
       style="fill:none"
       id="path2888"
       sodipodi:cx="111.07011"
       sodipodi:cy="31.242311"
       sodipodi:rx="9.2250919"
       sodipodi:ry="4.0590405"
       d="m 120.2952,31.242311 a 9.2250919,4.0590405 0 1 1 -18.45019,0 9.2250919,4.0590405 0 1 1 18.45019,0 z"
       transform="matrix(0.89652846,0,0,0.72727206,-80.074664,1001.5867)" />
    <path
       style="fill:#666666"
       id="path2948"
       d="m 7.4923145,1020.8129 c 0.124521,-0.193 0.1287837,-0.4375 0.2586417,-0.6274 0.041234,-0.061 0.094289,-0.1116 0.1414325,-0.1674 1.0694971,-0.9054 2.3588923,-1.4076 3.6668283,-1.8191 1.54927,-0.3765 3.15657,-0.4057 4.741084,-0.497 1.521433,-0.095 3.045206,-0.1304 4.569067,-0.1535 0.931734,-0.012 1.863475,-0.021 2.795271,-0.026 0.722709,6e-4 1.445404,5e-4 2.168108,0 0.728737,-0.01 1.458797,0.02 2.186584,-0.024 0.264648,-0.023 0.544278,-0.027 0.794889,-0.1293 0.06415,-0.026 0.242026,-0.135 0.18172,-0.1008 -1.437071,0.8128 -1.761231,1.139 -1.242365,0.6496 0.417026,-0.5807 0.584905,-1.3014 0.793174,-1.9755 0.243318,-0.7711 0.4262,-1.5596 0.67759,-2.328 0.08906,-0.2276 0.04395,-0.121 0.133591,-0.3206 0,0 1.6329,-0.743 1.6329,-0.743 l 0,0 c -0.105304,0.1984 -0.05009,0.094 -0.165507,0.3137 -0.301042,0.768 -0.527258,1.5601 -0.754208,2.353 -0.190489,0.6762 -0.326852,1.3867 -0.676447,2.0028 -0.621511,0.8991 -1.755531,1.2727 -2.784445,1.3161 -0.724695,0.025 -1.450307,-0.01 -2.175325,0.01 -0.724455,0 -1.448895,0 -2.173351,0 -0.909929,-0.01 -1.819868,-0.019 -2.72984,-0.019 -1.497599,0 -2.995542,0.029 -4.491368,0.1063 -1.616167,0.097 -3.259275,0.1587 -4.823977,0.6119 -0.4426488,0.147 -0.8877554,0.2923 -1.3144505,0.4827 -0.1224428,0.054 -0.4743109,0.2495 -0.3608241,0.1779 0.3234448,-0.2038 1.7644756,-1.0581 0.9930209,-0.5736 -0.063133,0.058 -0.1895999,0.1621 -0.2368066,0.2446 -0.0834,0.1459 -0.071321,0.3347 -0.147698,0.4844 0,0 -1.6572892,0.7527 -1.6572892,0.7527 z" />
    <path
       sodipodi:type="spiral"
       style="opacity:0.5;fill:none;stroke:#636363;stroke-width:1px;stroke-linecap:butt;stroke-linejoin:miter;stroke-opacity:1;filter:url(#filter3756)"
       id="path2958"
       sodipodi:cx="122.75523"
       sodipodi:cy="13.407134"
       sodipodi:expansion="1"
       sodipodi:revolution="3"
       sodipodi:radius="7.8451262"
       sodipodi:argument="-19.701523"
       sodipodi:t0="0.36693084"
       d="m 125.5653,12.782674 c 0.63386,1.672538 -0.40911,3.501914 -2.04379,4.072723 -2.02211,0.706098 -4.20102,-0.558748 -4.85273,-2.540162 -0.77986,-2.371012 0.70813,-4.901119 3.03653,-5.6327491 2.71954,-0.8545307 5.60185,0.857351 6.41276,3.5329071 0.92981,3.067825 -1.00646,6.302999 -4.02927,7.192774 -3.41597,1.005501 -7.00447,-1.155496 -7.97279,-4.525651 -1.08149,-3.764003 1.30447,-7.7061496 5.02202,-8.7528005 2.33083,-0.6562297 4.88379,-0.1186387 6.78325,1.3733565"
       transform="matrix(0.17215302,0,0,0.15025691,9.123871,1029.3229)" />
    <text
       xml:space="preserve"
       style="font-size:7.70359468px;font-style:normal;font-weight:normal;line-height:125%;fill:#999999;fill-opacity:1;stroke:none;font-family:Bitstream Vera Sans"
       x="465.61673"
       y="920.53833"
       id="text3795"
       sodipodi:linespacing="125%"
       transform="matrix(0.8967513,0.44481183,-0.44630073,0.89375968,0,0)"><tspan
         sodipodi:role="line"
         id="tspan3797"
         x="465.61673"
         y="920.53833"
         style="font-size:1.92589867px;font-style:normal;font-variant:normal;font-weight:normal;font-stretch:normal;text-align:start;line-height:125%;writing-mode:lr-tb;text-anchor:start;fill:#999999;font-family:Chalkduster;-inkscape-font-specification:Chalkduster">&lt;?php?&gt;</tspan></text>
    <g
       id="g3926"
       transform="translate(-52.052052,-6.6066064)">
      <path
         transform="matrix(3.8423075,0,0,4.1625,-180.63525,1142.8742)"
         d="m 64.464464,-36.076077 c 0,0.663406 -0.582613,1.201202 -1.301302,1.201202 -0.718689,0 -1.301301,-0.537796 -1.301301,-1.201202 0,-0.663405 0.582612,-1.201201 1.301301,-1.201201 0.718689,0 1.301302,0.537796 1.301302,1.201201 z"
         sodipodi:ry="1.2012012"
         sodipodi:rx="1.3013014"
         sodipodi:cy="-36.076077"
         sodipodi:cx="63.163162"
         id="path3862"
         style="fill:#000000;fill-opacity:1;stroke:none"
         sodipodi:type="arc" />
      <path
         sodipodi:type="arc"
         style="fill:#000000;fill-opacity:1;stroke:none"
         id="path3918"
         sodipodi:cx="63.163162"
         sodipodi:cy="-36.076077"
         sodipodi:rx="1.3013014"
         sodipodi:ry="1.2012012"
         d="m 64.464464,-36.076077 c 0,0.663406 -0.582613,1.201202 -1.301302,1.201202 -0.718689,0 -1.301301,-0.537796 -1.301301,-1.201202 0,-0.663405 0.582612,-1.201201 1.301301,-1.201201 0.718689,0 1.301302,0.537796 1.301302,1.201201 z"
         transform="matrix(3.8423075,0,0,4.1625,-156.61122,1142.8742)" />
      <path
         transform="matrix(3.8423075,0,0,4.1625,-168.62324,1142.8742)"
         d="m 64.464464,-36.076077 c 0,0.663406 -0.582613,1.201202 -1.301302,1.201202 -0.718689,0 -1.301301,-0.537796 -1.301301,-1.201202 0,-0.663405 0.582612,-1.201201 1.301301,-1.201201 0.718689,0 1.301302,0.537796 1.301302,1.201201 z"
         sodipodi:ry="1.2012012"
         sodipodi:rx="1.3013014"
         sodipodi:cy="-36.076077"
         sodipodi:cx="63.163162"
         id="path3920"
         style="fill:#000000;fill-opacity:1;stroke:none"
         sodipodi:type="arc" />
      <path
         transform="matrix(3.8423075,0,0,4.1625,-156.61122,1131.1625)"
         d="m 64.464464,-36.076077 c 0,0.663406 -0.582613,1.201202 -1.301302,1.201202 -0.718689,0 -1.301301,-0.537796 -1.301301,-1.201202 0,-0.663405 0.582612,-1.201201 1.301301,-1.201201 0.718689,0 1.301302,0.537796 1.301302,1.201201 z"
         sodipodi:ry="1.2012012"
         sodipodi:rx="1.3013014"
         sodipodi:cy="-36.076077"
         sodipodi:cx="63.163162"
         id="path3922"
         style="fill:#000000;fill-opacity:1;stroke:none"
         sodipodi:type="arc" />
      <path
         sodipodi:type="arc"
         style="fill:#000000;fill-opacity:1;stroke:none"
         id="path3924"
         sodipodi:cx="63.163162"
         sodipodi:cy="-36.076077"
         sodipodi:rx="1.3013014"
         sodipodi:ry="1.2012012"
         d="m 64.464464,-36.076077 c 0,0.663406 -0.582613,1.201202 -1.301302,1.201202 -0.718689,0 -1.301301,-0.537796 -1.301301,-1.201202 0,-0.663405 0.582612,-1.201201 1.301301,-1.201201 0.718689,0 1.301302,0.537796 1.301302,1.201201 z"
         transform="matrix(3.8423075,0,0,4.1625,-168.62324,1119.4508)" />
    </g>
    <g
       transform="matrix(0.14695496,0,0,0.14959579,9.0325859,888.09432)"
       id="g3965">
      <path
         sodipodi:type="arc"
         style="fill:#000000;fill-opacity:1;stroke:none"
         id="path3967"
         sodipodi:cx="63.163162"
         sodipodi:cy="-36.076077"
         sodipodi:rx="1.3013014"
         sodipodi:ry="1.2012012"
         d="m 64.464464,-36.076077 c 0,0.663406 -0.582613,1.201202 -1.301302,1.201202 -0.718689,0 -1.301301,-0.537796 -1.301301,-1.201202 0,-0.663405 0.582612,-1.201201 1.301301,-1.201201 0.718689,0 1.301302,0.537796 1.301302,1.201201 z"
         transform="matrix(3.8423075,0,0,4.1625,-180.63525,1142.8742)" />
      <path
         transform="matrix(3.8423075,0,0,4.1625,-156.61122,1142.8742)"
         d="m 64.464464,-36.076077 c 0,0.663406 -0.582613,1.201202 -1.301302,1.201202 -0.718689,0 -1.301301,-0.537796 -1.301301,-1.201202 0,-0.663405 0.582612,-1.201201 1.301301,-1.201201 0.718689,0 1.301302,0.537796 1.301302,1.201201 z"
         sodipodi:ry="1.2012012"
         sodipodi:rx="1.3013014"
         sodipodi:cy="-36.076077"
         sodipodi:cx="63.163162"
         id="path3969"
         style="fill:#000000;fill-opacity:1;stroke:none"
         sodipodi:type="arc" />
      <path
         sodipodi:type="arc"
         style="fill:#000000;fill-opacity:1;stroke:none"
         id="path3971"
         sodipodi:cx="63.163162"
         sodipodi:cy="-36.076077"
         sodipodi:rx="1.3013014"
         sodipodi:ry="1.2012012"
         d="m 64.464464,-36.076077 c 0,0.663406 -0.582613,1.201202 -1.301302,1.201202 -0.718689,0 -1.301301,-0.537796 -1.301301,-1.201202 0,-0.663405 0.582612,-1.201201 1.301301,-1.201201 0.718689,0 1.301302,0.537796 1.301302,1.201201 z"
         transform="matrix(3.8423075,0,0,4.1625,-168.62324,1142.8742)" />
      <path
         sodipodi:type="arc"
         style="fill:#000000;fill-opacity:1;stroke:none"
         id="path3973"
         sodipodi:cx="63.163162"
         sodipodi:cy="-36.076077"
         sodipodi:rx="1.3013014"
         sodipodi:ry="1.2012012"
         d="m 64.464464,-36.076077 c 0,0.663406 -0.582613,1.201202 -1.301302,1.201202 -0.718689,0 -1.301301,-0.537796 -1.301301,-1.201202 0,-0.663405 0.582612,-1.201201 1.301301,-1.201201 0.718689,0 1.301302,0.537796 1.301302,1.201201 z"
         transform="matrix(3.8423075,0,0,4.1625,-156.61122,1131.1625)" />
      <path
         transform="matrix(3.8423075,0,0,4.1625,-168.62324,1119.4508)"
         d="m 64.464464,-36.076077 c 0,0.663406 -0.582613,1.201202 -1.301302,1.201202 -0.718689,0 -1.301301,-0.537796 -1.301301,-1.201202 0,-0.663405 0.582612,-1.201201 1.301301,-1.201201 0.718689,0 1.301302,0.537796 1.301302,1.201201 z"
         sodipodi:ry="1.2012012"
         sodipodi:rx="1.3013014"
         sodipodi:cy="-36.076077"
         sodipodi:cx="63.163162"
         id="path3975"
         style="fill:#000000;fill-opacity:1;stroke:none"
         sodipodi:type="arc" />
    </g>
    <use
       x="0"
       y="0"
       xlink:href="#g3926"
       id="use4046" />
  </g>
</svg>
